@startuml

skinparam backgroundcolor transparent


title A mental model on Google Cloud Data Catalog Entry entity\n


Entry <|-- ManualEntry
Entry <|-- SynchronizedEntry
Entry *- Schema
Schema *-- "0..*" ColumnSchema
ColumnSchema *- "0..*" ColumnSchema : subcolumns


!startsub MAINCLASSES
abstract class Entry {
  -String name
  -String type
  -Schema schema
  -SourceSystemTimestamps sourceSystemTimestamps
  -String linkedResource

  +Entry get()
  +Entry update()
}
!endsub

class ColumnSchema {
  -String column
  -String description
  -String type
  -String mode
}

@enduml
