@startuml

skinparam backgroundcolor transparent


title A mental model on Google Cloud Data Catalog Tag Template and Tag relationship\n


TagTemplate *-- "1..*" TagTemplateField
TagTemplateField *-- FieldType
FieldType o-- PrimitiveType
FieldType *-- EnumType
Tag -> TagTemplate
Tag *-- "1..*" TagField


!startsub MAINCLASSES
class TagTemplate {
  -String id
  -String displayName

  +TagTemplate create()
  +TagTemplate get()
  +void delete()
}

class Tag {
  -String id
  -String scope
  -String column

  +Tag create()
  +Tag update()
  +Tag delete()
  +Tag[] list()
}

class TagField {
  -Boolean boolValue
  -Double doubleValue
  -String stringValue
  -Timestamp timestampValue
  -String enumValue
}
!endsub

class TagTemplateField {
  -String displayName

  +TagTemplateField create()
  +TagTemplateField rename()
  +TagTemplateField update()
  +void delete()
}

enum PrimitiveType {
  BOOL
  DOUBLE
  STRING
  TIMESTAMP
}

class EnumType {
  -String[] allowedValues
}

@enduml
